<?xml version="1.0" encoding="UTF-8" standalone="no"?>
<!DOCTYPE svg PUBLIC "-//W3C//DTD SVG 1.1//EN" "http://www.w3.org/Graphics/SVG/1.1/DTD/svg11.dtd">
<svg width="100%" height="100%" viewBox="0 0 187 281" version="1.1" xmlns="http://www.w3.org/2000/svg" xmlns:xlink="http://www.w3.org/1999/xlink" xml:space="preserve" xmlns:serif="http://www.serif.com/" style="fill-rule:evenodd;clip-rule:evenodd;stroke-linejoin:round;stroke-miterlimit:2;">
    <g transform="matrix(1,0,0,1,-344.599,-271.475)">
        <g>
            <path d="M406.75,314.042C402.374,318.415 396.558,320.821 390.361,320.821C389.483,320.821 388.608,320.774 387.736,320.677C386.961,313.714 389.359,306.667 394.365,301.661C399.358,296.668 406.36,294.24 413.376,295.028C414.154,301.988 411.754,309.032 406.75,314.042Z" style="fill:rgb(150,194,34);fill-rule:nonzero;"/>
            <path d="M437.742,540.105C392.679,540.105 356.02,503.478 356.02,458.457C356.02,429.101 371.936,401.861 397.558,387.365C399.667,386.175 400.793,383.785 400.369,381.4C399.945,378.998 399.735,376.779 399.735,374.629C399.735,353.5 416.788,336.31 437.741,336.31C458.699,336.31 475.747,353.499 475.747,374.629C475.747,376.778 475.539,378.993 475.113,381.403C474.693,383.784 475.82,386.174 477.926,387.364C503.545,401.86 519.461,429.1 519.461,458.456C519.462,503.478 482.805,540.105 437.742,540.105Z" style="fill:rgb(222,220,10);fill-rule:nonzero;"/>
            <path d="M486.92,379.428C487.087,377.794 487.169,376.205 487.169,374.63C487.169,348.974 467.766,327.806 442.956,325.172C439.575,298.568 422.822,277.839 399.213,271.66C396.175,270.868 393.045,272.687 392.244,275.737C391.445,278.788 393.269,281.908 396.323,282.709C398.303,283.227 400.157,283.895 401.954,284.623C396.082,286.159 390.691,289.188 386.289,293.59C377.594,302.283 374.164,315.096 377.339,327.023C377.865,328.997 379.412,330.543 381.39,331.07C384.311,331.852 387.33,332.243 390.362,332.243C399.606,332.243 408.295,328.65 414.823,322.119C419.707,317.237 422.857,311.047 424.182,304.458C428.017,311.122 430.338,318.423 431.409,325.343C407.143,328.49 388.315,349.367 388.315,374.629C388.315,376.207 388.398,377.798 388.568,379.427C361.349,396.37 344.599,426.296 344.599,458.456C344.599,509.771 386.384,551.525 437.742,551.525C489.1,551.525 530.884,509.772 530.884,458.456C530.884,426.297 514.135,396.372 486.92,379.428ZM406.75,314.042C402.374,318.415 396.558,320.821 390.361,320.821C389.483,320.821 388.608,320.774 387.736,320.677C386.961,313.714 389.359,306.667 394.365,301.661C399.358,296.668 406.36,294.24 413.376,295.028C414.154,301.988 411.754,309.032 406.75,314.042ZM437.742,540.105C392.679,540.105 356.02,503.478 356.02,458.457C356.02,429.101 371.936,401.861 397.558,387.365C399.667,386.175 400.793,383.785 400.369,381.4C399.945,378.998 399.735,376.779 399.735,374.629C399.735,353.5 416.788,336.31 437.741,336.31C458.699,336.31 475.747,353.499 475.747,374.629C475.747,376.778 475.539,378.993 475.113,381.403C474.693,383.784 475.82,386.174 477.926,387.364C503.545,401.86 519.461,429.1 519.461,458.456C519.462,503.478 482.805,540.105 437.742,540.105Z" style="fill:rgb(82,80,27);fill-rule:nonzero;"/>
            <path d="M499.477,452.745C496.323,452.745 493.764,455.304 493.764,458.458C493.764,489.308 468.635,514.407 437.742,514.407C434.588,514.407 432.032,516.964 432.032,520.119C432.032,523.271 434.589,525.827 437.742,525.827C474.932,525.827 505.185,495.606 505.185,458.457C505.185,455.303 502.628,452.745 499.477,452.745Z" style="fill:white;fill-rule:nonzero;"/>
            <path d="M437.742,362.01C444.53,362.01 450.05,367.671 450.05,374.63C450.05,377.784 452.607,380.34 455.76,380.34C458.914,380.34 461.47,377.783 461.47,374.63C461.47,361.374 450.828,350.588 437.741,350.588C434.587,350.588 432.031,353.145 432.031,356.298C432.031,359.453 434.588,362.01 437.742,362.01Z" style="fill:white;fill-rule:nonzero;"/>
        </g>
    </g>
</svg>
