<?xml version="1.0" encoding="UTF-8"?>
<svg width="96px" height="20px" viewBox="0 0 96 20" version="1.1" xmlns="http://www.w3.org/2000/svg" xmlns:xlink="http://www.w3.org/1999/xlink">
    <title>Logo ESS</title>
    <g id="Page-1" stroke="none" stroke-width="1" fill="none" fill-rule="evenodd">
        <g id="Presentación" transform="translate(-12.000000, -20.000000)">
            <g id="Logo-ESS" transform="translate(12.000000, 20.000000)">
                <path d="M21.5,0.5 C23.4329966,0.5 25.1829966,1.28350169 26.4497475,2.55025253 C27.7164983,3.81700338 28.5,5.56700338 28.5,7.5 C28.5,9.43299662 27.7164983,11.1829966 26.4497475,12.4497475 C25.1829966,13.7164983 23.4329966,14.5 21.5,14.5 C20.5190908,14.5 19.5852637,14.2983574 18.7380614,13.9338305 C19.229498,12.7182953 19.5,11.3907418 19.5,10 C19.5,7.12627234 18.345565,4.52216139 16.4755215,2.62611012 C17.7476704,1.3149374 19.5286502,0.5 21.5,0.5 Z" id="Combined-Shape" stroke="#FFFFFF" fill="#FFFFFF"></path>
                <circle id="Oval" stroke="#FFFFFF" cx="10" cy="10" r="9.5"></circle>
                <path d="M60,20 L60,17.4576271 L49.6273684,17.4576271 L49.6273684,11.0451977 L58.8231579,11.0451977 L58.8231579,8.50282486 L49.6273684,8.50282486 L49.6273684,2.54237288 L59.5073684,2.54237288 L59.5073684,0 L47,0 L47,20 L60,20 Z M70.9281679,20 C71.8200161,20 72.6594027,19.8655914 73.4463277,19.5967742 C74.2332526,19.327957 74.9152542,18.9426523 75.4923325,18.4408602 C76.0694108,17.9390681 76.5284504,17.3207885 76.8694512,16.5860215 C77.210452,15.8512545 77.3809524,15.0268817 77.3809524,14.1129032 C77.3809524,12.9659498 77.1536185,12.0654122 76.6989508,11.4112903 C76.244283,10.7571685 75.6803202,10.2374552 75.0070621,9.85215054 C74.3338041,9.46684588 73.5993409,9.16666667 72.8036723,8.9516129 C72.0080038,8.73655914 71.2735405,8.49462366 70.6002825,8.22580645 C69.9270245,7.95698925 69.3630616,7.60752688 68.9083939,7.17741935 C68.4537261,6.74731183 68.2263923,6.12903226 68.2263923,5.32258065 C68.2263923,5.03584229 68.2832257,4.72222222 68.3968927,4.38172043 C68.5105596,4.04121864 68.7072908,3.72311828 68.9870864,3.42741935 C69.2668819,3.13172043 69.6384853,2.88978495 70.1018967,2.7016129 C70.565308,2.51344086 71.1467581,2.41935484 71.846247,2.41935484 C72.5807103,2.41935484 73.236481,2.57168459 73.8135593,2.87634409 C74.3906376,3.18100358 74.8365617,3.58422939 75.1513317,4.08602151 L75.1513317,4.08602151 L77.1973366,2.17741935 C76.4978477,1.29928315 75.684692,0.716845878 74.7578692,0.430107527 C73.8310465,0.143369176 72.8605058,0 71.846247,0 C70.7270648,0 69.7696395,0.174731183 68.9739709,0.524193548 C68.1783024,0.873655914 67.5269034,1.30824373 67.019774,1.82795699 C66.5126446,2.34767025 66.1410412,2.92114695 65.9049637,3.5483871 C65.6688862,4.17562724 65.5508475,4.76702509 65.5508475,5.32258065 C65.5508475,6.55913978 65.7781813,7.54032258 66.2328491,8.26612903 C66.6875168,8.99193548 67.2514797,9.56989247 67.9247377,10 C68.5979957,10.4301075 69.332459,10.766129 70.1281275,11.0080645 C70.9237961,11.25 71.6582593,11.5008961 72.3315174,11.7607527 C73.0047754,12.0206093 73.5687382,12.34319 74.023406,12.7284946 C74.4780737,13.1137993 74.7054076,13.6738351 74.7054076,14.4086022 C74.7054076,14.9283154 74.5917407,15.3853047 74.3644068,15.7795699 C74.1370729,16.1738351 73.844162,16.5053763 73.4856739,16.7741935 C73.1271859,17.0430108 72.7293516,17.2446237 72.2921711,17.3790323 C71.8549906,17.5134409 71.4265537,17.5806452 71.0068604,17.5806452 C70.2549099,17.5806452 69.5248184,17.4148746 68.816586,17.0833333 C68.1083535,16.7517921 67.5269034,16.2365591 67.0722357,15.5376344 L67.0722357,15.5376344 L65,17.3655914 C65.62954,18.2616487 66.4776702,18.9247312 67.5443906,19.3548387 C68.6111111,19.7849462 69.7390369,20 70.9281679,20 Z M88.9281679,20 C89.8200161,20 90.6594027,19.8655914 91.4463277,19.5967742 C92.2332526,19.327957 92.9152542,18.9426523 93.4923325,18.4408602 C94.0694108,17.9390681 94.5284504,17.3207885 94.8694512,16.5860215 C95.210452,15.8512545 95.3809524,15.0268817 95.3809524,14.1129032 C95.3809524,12.9659498 95.1536185,12.0654122 94.6989508,11.4112903 C94.244283,10.7571685 93.6803202,10.2374552 93.0070621,9.85215054 C92.3338041,9.46684588 91.5993409,9.16666667 90.8036723,8.9516129 C90.0080038,8.73655914 89.2735405,8.49462366 88.6002825,8.22580645 C87.9270245,7.95698925 87.3630616,7.60752688 86.9083939,7.17741935 C86.4537261,6.74731183 86.2263923,6.12903226 86.2263923,5.32258065 C86.2263923,5.03584229 86.2832257,4.72222222 86.3968927,4.38172043 C86.5105596,4.04121864 86.7072908,3.72311828 86.9870864,3.42741935 C87.2668819,3.13172043 87.6384853,2.88978495 88.1018967,2.7016129 C88.565308,2.51344086 89.1467581,2.41935484 89.846247,2.41935484 C90.5807103,2.41935484 91.236481,2.57168459 91.8135593,2.87634409 C92.3906376,3.18100358 92.8365617,3.58422939 93.1513317,4.08602151 L93.1513317,4.08602151 L95.1973366,2.17741935 C94.4978477,1.29928315 93.684692,0.716845878 92.7578692,0.430107527 C91.8310465,0.143369176 90.8605058,0 89.846247,0 C88.7270648,0 87.7696395,0.174731183 86.9739709,0.524193548 C86.1783024,0.873655914 85.5269034,1.30824373 85.019774,1.82795699 C84.5126446,2.34767025 84.1410412,2.92114695 83.9049637,3.5483871 C83.6688862,4.17562724 83.5508475,4.76702509 83.5508475,5.32258065 C83.5508475,6.55913978 83.7781813,7.54032258 84.2328491,8.26612903 C84.6875168,8.99193548 85.2514797,9.56989247 85.9247377,10 C86.5979957,10.4301075 87.332459,10.766129 88.1281275,11.0080645 C88.9237961,11.25 89.6582593,11.5008961 90.3315174,11.7607527 C91.0047754,12.0206093 91.5687382,12.34319 92.023406,12.7284946 C92.4780737,13.1137993 92.7054076,13.6738351 92.7054076,14.4086022 C92.7054076,14.9283154 92.5917407,15.3853047 92.3644068,15.7795699 C92.1370729,16.1738351 91.844162,16.5053763 91.4856739,16.7741935 C91.1271859,17.0430108 90.7293516,17.2446237 90.2921711,17.3790323 C89.8549906,17.5134409 89.4265537,17.5806452 89.0068604,17.5806452 C88.2549099,17.5806452 87.5248184,17.4148746 86.816586,17.0833333 C86.1083535,16.7517921 85.5269034,16.2365591 85.0722357,15.5376344 L85.0722357,15.5376344 L83,17.3655914 C83.62954,18.2616487 84.4776702,18.9247312 85.5443906,19.3548387 C86.6111111,19.7849462 87.7390369,20 88.9281679,20 Z" id="ESS" fill="#FFFFFF" fill-rule="nonzero"></path>
            </g>
        </g>
    </g>
</svg>