<?xml version="1.0" encoding="UTF-8" standalone="no"?>
<!DOCTYPE svg PUBLIC "-//W3C//DTD SVG 1.1//EN" "http://www.w3.org/Graphics/SVG/1.1/DTD/svg11.dtd">
<svg width="100%" height="100%" viewBox="0 0 24 24" version="1.1" xmlns="http://www.w3.org/2000/svg" xmlns:xlink="http://www.w3.org/1999/xlink" xml:space="preserve" xmlns:serif="http://www.serif.com/" style="fill-rule:evenodd;clip-rule:evenodd;stroke-linejoin:round;stroke-miterlimit:2;">
    <path d="M6.196,17.485C7.046,16.873 7.948,16.389 8.902,16.034C9.856,15.678 10.888,15.5 12,15.5C13.112,15.5 14.144,15.678 15.098,16.034C16.052,16.389 16.954,16.873 17.804,17.485C18.464,16.801 18.995,15.994 19.397,15.063C19.799,14.133 20,13.112 20,12C20,9.783 19.221,7.896 17.663,6.337C16.104,4.779 14.217,4 12,4C9.783,4 7.896,4.779 6.338,6.337C4.779,7.896 4,9.783 4,12C4,13.112 4.201,14.133 4.603,15.063C5.005,15.994 5.536,16.801 6.196,17.485ZM12,12.5C11.158,12.5 10.447,12.211 9.868,11.632C9.289,11.053 9,10.342 9,9.5C9,8.658 9.289,7.947 9.868,7.368C10.447,6.789 11.158,6.5 12,6.5C12.842,6.5 13.553,6.789 14.132,7.368C14.711,7.947 15,8.658 15,9.5C15,10.342 14.711,11.053 14.132,11.632C13.553,12.211 12.842,12.5 12,12.5ZM12,21C10.745,21 9.57,20.766 8.475,20.299C7.38,19.832 6.428,19.193 5.617,18.383C4.807,17.572 4.168,16.62 3.701,15.525C3.234,14.43 3,13.255 3,12C3,10.745 3.234,9.57 3.701,8.475C4.168,7.38 4.807,6.428 5.617,5.617C6.428,4.807 7.38,4.168 8.475,3.701C9.57,3.234 10.745,3 12,3C13.255,3 14.43,3.234 15.525,3.701C16.62,4.168 17.572,4.807 18.383,5.617C19.193,6.428 19.832,7.38 20.299,8.475C20.766,9.57 21,10.745 21,12C21,13.255 20.766,14.43 20.299,15.525C19.832,16.62 19.193,17.572 18.383,18.383C17.572,19.193 16.62,19.832 15.525,20.299C14.43,20.766 13.255,21 12,21Z" style="fill:rgb(60,138,192);fill-rule:nonzero;"/>
</svg>
