<?xml version="1.0" encoding="UTF-8" standalone="no"?>
<!DOCTYPE svg PUBLIC "-//W3C//DTD SVG 1.1//EN" "http://www.w3.org/Graphics/SVG/1.1/DTD/svg11.dtd">
<svg width="100%" height="100%" viewBox="0 0 24 24" version="1.1" xmlns="http://www.w3.org/2000/svg" xmlns:xlink="http://www.w3.org/1999/xlink" xml:space="preserve" xmlns:serif="http://www.serif.com/" style="fill-rule:evenodd;clip-rule:evenodd;stroke-linejoin:round;stroke-miterlimit:2;">
    <path d="M17.5,21.5L17.5,18.5L14.5,18.5L14.5,17.5L17.5,17.5L17.5,14.5L18.5,14.5L18.5,17.5L21.5,17.5L21.5,18.5L18.5,18.5L18.5,21.5L17.5,21.5ZM5.615,19C5.155,19 4.771,18.846 4.463,18.538C4.154,18.229 4,17.845 4,17.385L4,6.615C4,6.155 4.154,5.771 4.463,5.462C4.771,5.154 5.155,5 5.615,5L7.385,5L7.385,2.769L8.462,2.769L8.462,5L13.615,5L13.615,2.769L14.615,2.769L14.615,5L16.385,5C16.845,5 17.229,5.154 17.538,5.462C17.846,5.771 18,6.155 18,6.615L18,12.331C17.833,12.319 17.667,12.313 17.5,12.313C17.333,12.313 17.167,12.319 17,12.331L17,10.615L5,10.615L5,17.385C5,17.538 5.064,17.679 5.192,17.808C5.321,17.936 5.462,18 5.615,18L12.288,18C12.288,18.167 12.294,18.333 12.306,18.5C12.317,18.667 12.338,18.833 12.369,19L5.615,19Z" style="fill:rgb(60,138,192);fill-rule:nonzero;"/>
</svg>
