<?xml version="1.0" encoding="UTF-8" standalone="no"?>
<!DOCTYPE svg PUBLIC "-//W3C//DTD SVG 1.1//EN" "http://www.w3.org/Graphics/SVG/1.1/DTD/svg11.dtd">
<svg width="100%" height="100%" viewBox="0 0 24 24" version="1.1" xmlns="http://www.w3.org/2000/svg" xmlns:xlink="http://www.w3.org/1999/xlink" xml:space="preserve" xmlns:serif="http://www.serif.com/" style="fill-rule:evenodd;clip-rule:evenodd;stroke-linejoin:round;stroke-miterlimit:2;">
    <path d="M12.713,11.163C13.029,10.821 13.248,10.423 13.369,9.969C13.49,9.515 13.55,9.05 13.55,8.575C13.55,8.1 13.492,7.635 13.375,7.181C13.258,6.727 13.038,6.329 12.713,5.988C13.371,6.037 13.915,6.313 14.344,6.813C14.773,7.313 14.988,7.9 14.988,8.575C14.988,9.25 14.773,9.837 14.344,10.337C13.915,10.837 13.371,11.112 12.713,11.163ZM17.563,18.038L17.563,16.813C17.563,16.37 17.49,15.949 17.344,15.549C17.198,15.15 16.95,14.829 16.6,14.588C17.212,14.761 17.765,15.027 18.259,15.386C18.753,15.745 19,16.222 19,16.816L19,18.038L17.563,18.038ZM19,12.313L19,10.325L17.013,10.325L17.013,9.688L19,9.688L19,7.7L19.638,7.7L19.638,9.688L21.625,9.688L21.625,10.325L19.638,10.325L19.638,12.313L19,12.313ZM8.969,11.212C8.239,11.212 7.618,10.954 7.106,10.438C6.594,9.922 6.338,9.301 6.338,8.575C6.338,7.849 6.593,7.228 7.105,6.712C7.617,6.196 8.24,5.938 8.975,5.938C9.701,5.938 10.322,6.196 10.838,6.712C11.354,7.228 11.613,7.849 11.613,8.575C11.613,9.301 11.354,9.922 10.838,10.438C10.322,10.954 9.699,11.212 8.969,11.212ZM2.388,18.038L2.388,16.813C2.388,16.452 2.496,16.115 2.713,15.802C2.93,15.489 3.23,15.242 3.613,15.062C4.513,14.637 5.411,14.317 6.309,14.1C7.207,13.883 8.094,13.775 8.971,13.775C9.849,13.775 10.735,13.883 11.631,14.1C12.527,14.317 13.428,14.639 14.333,15.067C14.711,15.247 15.01,15.493 15.231,15.806C15.452,16.118 15.563,16.453 15.563,16.813L15.563,18.038L2.388,18.038ZM8.975,10.575C9.525,10.575 9.996,10.379 10.388,9.987C10.779,9.596 10.975,9.125 10.975,8.575C10.975,8.025 10.779,7.554 10.388,7.162C9.996,6.771 9.525,6.575 8.975,6.575C8.417,6.575 7.944,6.771 7.556,7.162C7.169,7.554 6.975,8.025 6.975,8.575C6.975,9.125 7.169,9.596 7.556,9.987C7.944,10.379 8.417,10.575 8.975,10.575ZM3.025,17.4L14.925,17.4L14.925,16.816C14.925,16.577 14.846,16.354 14.688,16.148C14.529,15.941 14.304,15.758 14.013,15.6C13.221,15.217 12.4,14.923 11.549,14.719C10.699,14.515 9.841,14.413 8.975,14.413C8.106,14.413 7.245,14.515 6.392,14.719C5.539,14.923 4.717,15.217 3.925,15.6C3.633,15.758 3.41,15.942 3.256,16.15C3.102,16.358 3.025,16.579 3.025,16.813L3.025,17.4Z" style="fill:rgb(60,138,192);fill-rule:nonzero;"/>
</svg>
