<?xml version="1.0" encoding="UTF-8" standalone="no"?>
<!DOCTYPE svg PUBLIC "-//W3C//DTD SVG 1.1//EN" "http://www.w3.org/Graphics/SVG/1.1/DTD/svg11.dtd">
<svg width="100%" height="100%" viewBox="0 0 24 24" version="1.1" xmlns="http://www.w3.org/2000/svg" xmlns:xlink="http://www.w3.org/1999/xlink" xml:space="preserve" xmlns:serif="http://www.serif.com/" style="fill-rule:evenodd;clip-rule:evenodd;stroke-linejoin:round;stroke-miterlimit:2;">
    <path d="M13.331,12.175C12.877,12.175 12.496,12.021 12.188,11.712C11.879,11.404 11.725,11.021 11.725,10.563C11.725,10.104 11.879,9.723 12.187,9.419C12.495,9.115 12.879,8.962 13.338,8.962C13.791,8.962 14.17,9.116 14.477,9.422C14.784,9.728 14.938,10.109 14.938,10.565C14.938,11.022 14.786,11.404 14.483,11.713C14.181,12.021 13.797,12.175 13.331,12.175ZM7.45,15.425C7.055,15.425 6.716,15.284 6.435,15.003C6.153,14.721 6.013,14.383 6.013,13.987L6.013,7.15C6.013,6.755 6.153,6.416 6.435,6.135C6.716,5.853 7.055,5.712 7.45,5.712L19.225,5.712C19.62,5.712 19.959,5.853 20.24,6.135C20.522,6.416 20.663,6.755 20.663,7.15L20.663,13.987C20.663,14.383 20.522,14.721 20.24,15.003C19.959,15.284 19.62,15.425 19.225,15.425L7.45,15.425ZM8.113,14.788L18.563,14.788C18.563,14.379 18.706,14.031 18.992,13.744C19.279,13.456 19.623,13.313 20.025,13.313L20.025,7.825C19.617,7.825 19.271,7.68 18.988,7.391C18.704,7.101 18.563,6.754 18.563,6.35L8.113,6.35C8.113,6.758 7.969,7.106 7.683,7.394C7.396,7.681 7.052,7.825 6.65,7.825L6.65,13.313C7.058,13.313 7.404,13.457 7.688,13.747C7.971,14.036 8.113,14.383 8.113,14.788ZM17.738,18.088L4.775,18.088C4.38,18.088 4.041,17.947 3.76,17.665C3.478,17.384 3.338,17.045 3.338,16.65L3.338,8.638L3.975,8.638L3.975,16.65C3.975,16.85 4.058,17.033 4.225,17.2C4.392,17.367 4.575,17.45 4.775,17.45L17.738,17.45L17.738,18.088ZM7.45,14.788L6.65,14.788L6.65,6.35L7.45,6.35C7.233,6.35 7.046,6.429 6.888,6.587C6.729,6.746 6.65,6.933 6.65,7.15L6.65,13.987C6.65,14.204 6.729,14.392 6.888,14.55C7.046,14.708 7.233,14.788 7.45,14.788Z" style="fill:rgb(60,138,192);fill-rule:nonzero;"/>
</svg>
