<?xml version="1.0" encoding="UTF-8" standalone="no"?>
<!DOCTYPE svg PUBLIC "-//W3C//DTD SVG 1.1//EN" "http://www.w3.org/Graphics/SVG/1.1/DTD/svg11.dtd">
<svg width="100%" height="100%" viewBox="0 0 24 24" version="1.1" xmlns="http://www.w3.org/2000/svg" xmlns:xlink="http://www.w3.org/1999/xlink" xml:space="preserve" xmlns:serif="http://www.serif.com/" style="fill-rule:evenodd;clip-rule:evenodd;stroke-linejoin:round;stroke-miterlimit:2;">
    <path d="M10.875,15.063C11.142,15.329 11.494,15.448 11.931,15.419C12.369,15.39 12.684,15.239 12.877,14.968L17.963,8.075L11.02,13.11C10.732,13.303 10.569,13.61 10.531,14.031C10.494,14.452 10.608,14.796 10.875,15.063ZM11.994,5.412C12.888,5.412 13.685,5.515 14.386,5.719C15.087,5.923 15.808,6.242 16.55,6.675L16,7.1C15.392,6.75 14.76,6.488 14.106,6.313C13.452,6.137 12.75,6.05 12,6.05C9.8,6.05 7.927,6.823 6.381,8.369C4.835,9.915 4.063,11.79 4.063,13.994C4.063,14.69 4.156,15.376 4.344,16.051C4.531,16.725 4.801,17.358 5.154,17.95L18.846,17.95C19.232,17.333 19.51,16.683 19.681,16C19.852,15.317 19.938,14.613 19.938,13.889C19.938,13.296 19.858,12.648 19.7,11.944C19.542,11.24 19.279,10.587 18.913,9.987L19.338,9.425C19.829,10.283 20.158,11.058 20.325,11.75C20.492,12.442 20.575,13.154 20.575,13.887C20.575,14.704 20.485,15.46 20.306,16.156C20.127,16.852 19.842,17.575 19.45,18.325C19.408,18.4 19.333,18.463 19.225,18.513C19.117,18.563 18.992,18.588 18.85,18.588L5.15,18.588C5.033,18.588 4.922,18.558 4.818,18.5C4.714,18.442 4.627,18.349 4.555,18.221C4.26,17.707 3.998,17.104 3.769,16.413C3.54,15.722 3.425,14.914 3.425,13.991C3.425,12.822 3.644,11.718 4.083,10.68C4.522,9.642 5.126,8.731 5.895,7.948C6.663,7.164 7.571,6.546 8.619,6.093C9.666,5.639 10.791,5.412 11.994,5.412Z" style="fill:rgb(60,138,192);fill-rule:nonzero;"/>
</svg>
